<svg width="103" height="103" viewBox="0 0 103 103" fill="none" xmlns="http://www.w3.org/2000/svg">
<g clip-path="url(#clip0_42_77)">
<path d="M95.5891 30.0821L95.2102 33.8061L57.499 30.0189L57.1491 33.5245L62.0422 34.016L59.7126 38.3118C57.1815 37.2707 54.9833 35.5281 53.1725 33.1319C54.019 29.3448 51.1518 25.2009 47.6053 24.0779C43.1303 22.6613 39.2185 25.2777 37.4965 29.3158C34.351 36.6887 31.2022 44.0633 28.055 51.438C27.9646 51.6479 27.8963 51.8612 27.8314 52.0763C27.555 52.4159 27.3041 52.805 27.1044 53.2573C22.4844 63.675 14.3844 80.3802 9.00315 90.4292C8.74885 90.9054 8.60549 91.373 8.51162 91.8287L7.36813 93.9365L7.38008 93.9399C7.37496 93.9501 7.35448 93.9638 7.35448 93.9638L6.88684 94.9673C6.88684 94.9673 6.96876 95.138 7.12919 95.2148L12.1554 97.6315L18.6477 100.748L21.3494 102.048C21.5081 102.122 21.6634 102.142 21.6907 102.083L22.1123 101.198C22.1191 101.188 22.1123 101.175 22.1106 101.163L22.1277 101.175C22.1277 101.175 23.2541 99.5652 21.8853 98.478C21.8853 98.478 20.9603 97.908 19.8577 96.942L18.8064 98.0479L18.1681 97.4727L19.228 96.3617C19.0419 96.1842 18.8559 95.9913 18.6699 95.7951L17.7176 96.7952L17.081 96.2217L18.1033 95.1448C17.9394 94.9485 17.7824 94.7437 17.6322 94.5253L16.772 95.4298L16.6457 95.3172C16.7481 95.1636 16.8574 95.0339 16.9478 94.8598C17.1083 94.5628 17.2772 94.2437 17.4411 93.9365C17.8302 93.6105 18.1767 93.1924 18.4446 92.6394C19.0198 91.4532 19.4294 90.6067 19.7144 90.0162C20.153 89.1065 20.2998 88.8061 20.2981 88.8095C20.5831 88.219 20.9944 87.3725 21.5679 86.1864L21.5218 86.1625C25.4506 78.5762 29.7651 69.9625 33.2536 62.5281C40.5549 69.9778 43.1678 78.4653 42.4886 89.185C42.4084 90.448 42.7651 91.4686 43.3607 92.2554L43.6252 96.9846L43.6389 96.9812C43.6372 96.9915 43.6286 97.0154 43.6286 97.0154L43.7584 98.1162C43.7584 98.1162 43.9188 98.2169 44.0929 98.1998L49.6396 97.6025L56.7992 96.8327L59.7791 96.5102C59.9566 96.4931 60.0966 96.4231 60.0863 96.36L59.9805 95.3872C59.9805 95.3769 59.9686 95.3701 59.9583 95.3599L59.9805 95.3564C59.9805 95.3564 60.088 93.3972 58.354 93.1924C58.354 93.1924 57.2652 93.1958 55.8264 92.9517L55.5107 94.4451L54.6676 94.2949L54.9833 92.7913C54.7324 92.735 54.473 92.6786 54.2102 92.5984L53.9303 93.9535L53.0872 93.8016L53.3893 92.3441C53.1469 92.2605 52.9028 92.1666 52.6639 92.071L52.4079 93.2947L51.5631 93.1412L51.6552 92.6974C52.1792 92.0216 52.4779 91.1375 52.3618 90.0367C52.227 88.7225 52.1263 87.7975 52.058 87.1438C52.0546 87.1011 52.0529 87.0738 52.0478 87.0346C52.2253 76.1271 49.3222 66.4381 42.2803 58.3211C42.7207 57.7084 43.0996 57.0308 43.4085 56.3106C45.4104 51.6155 47.4141 46.9238 49.4161 42.2303C51.2388 43.879 53.2527 45.2136 55.4271 46.2121L55.2496 46.538L56.4323 46.6558C59.3132 47.8181 62.4484 48.4205 65.7833 48.4205C67.7136 48.4205 69.7104 48.2208 71.7567 47.8129C73.6648 47.4306 75.0302 45.8793 75.2862 44.0565L76.2454 44.1521L78.6859 39.3221L90.4451 40.5032L90.8069 36.9003L94.8603 37.3065L95.0378 35.5554L98.5468 35.9087L99.0963 30.4319L95.5891 30.0821ZM73.1835 39.6157C72.2636 39.061 71.1492 38.8221 70.0125 39.0473C68.0737 39.4348 66.2407 39.544 64.5016 39.4126L67.1521 34.528L75.3357 35.3489L73.1835 39.6157Z" fill="#010002"/>
<path d="M19.368 60.5722L36.9453 23.6683L28.2548 19.5295L36.0493 3.43708L34.7436 2.80389L26.9457 18.9066L23.534 17.2801L19.8971 18.0532L15.772 16.0888L4.11523 40.5612L8.24032 42.5256L5.95676 54.1858L19.368 60.5722Z" fill="#010002"/>
<path d="M40.9918 15.826C41.8947 19.8743 45.5043 22.9037 49.824 22.9037C54.8212 22.9037 58.8746 18.8503 58.8746 13.8497C58.8746 13.6073 58.8575 13.3701 58.8388 13.1346H49.8223C49.8257 13.1346 45.8713 15.1792 40.9918 15.826Z" fill="#010002"/>
<path d="M39.6555 14.1279C44.9633 13.4247 49.2659 11.1975 49.2659 11.1975H59.0794H59.6068C59.6068 5.48513 54.9765 0.854858 49.2659 0.854858C43.5536 0.854858 38.9233 5.48513 38.9233 11.1975C38.9233 12.23 39.0804 13.2267 39.362 14.1688C39.4609 14.1552 39.5582 14.1398 39.6555 14.1279Z" fill="#010002"/>
</g>
<defs>
<clipPath id="clip0_42_77">
<rect width="101.262" height="101.262" fill="white" transform="translate(0.974854 0.854858)"/>
</clipPath>
</defs>
</svg>
