<?xml version="1.0" encoding="UTF-8" standalone="no"?>
<!DOCTYPE svg PUBLIC "-//W3C//DTD SVG 1.1//EN" "http://www.w3.org/Graphics/SVG/1.1/DTD/svg11.dtd">
<svg width="100%" height="100%" viewBox="0 0 2416 477" version="1.1" xmlns="http://www.w3.org/2000/svg" xmlns:xlink="http://www.w3.org/1999/xlink" xml:space="preserve" xmlns:serif="http://www.serif.com/" style="fill-rule:evenodd;clip-rule:evenodd;stroke-linecap:round;stroke-linejoin:round;">
    <g transform="matrix(1,0,0,1,0,-160)">
        <path d="M2179.28,602.359C2179.28,602.359 1849.76,510.051 1283.4,590.86C777.395,663.059 261.451,612.855 204.173,606.882L177.803,722.068C177.803,722.068 725.84,783.205 1262.48,706.631C1828.84,625.822 2158.36,718.131 2158.36,718.131L2184.41,602.109L2179.28,602.359Z" style="fill:rgb(245,62,40);fill-rule:nonzero;stroke:rgb(76,36,29);stroke-width:22.16px;"/>
    </g>
    <g transform="matrix(1,0,0,1,0,-160)">
        <path d="M2177.07,612.915L2182.19,612.665L2244.3,336.162C2225.53,332.086 2206.2,328.417 2186.39,325.17C1784.56,260.399 1653.86,270.236 1077.43,321.982C563.962,368.069 342.822,303.488 279.591,278.614L201.956,617.438C259.234,623.41 775.178,673.615 1281.18,601.415C1847.54,520.607 2177.07,612.915 2177.07,612.915Z" style="fill:rgb(255,206,86);fill-rule:nonzero;stroke:rgb(76,36,29);stroke-width:22.16px;"/>
    </g>
    <g transform="matrix(1,0,0,1,0,-160)">
        <path d="M1078.13,319.886C1654.56,268.14 1785.25,258.303 2187.08,323.075C2206.9,326.322 2226.23,329.99 2244.99,334.066L2267.66,233.096C1836.96,161.858 1715.9,170.728 1122.5,223.989C495.662,280.254 304.339,171.545 304.339,171.545L280.285,276.518C343.516,301.392 564.656,365.973 1078.13,319.886Z" style="fill:rgb(245,62,40);fill-rule:nonzero;stroke:rgb(76,36,29);stroke-width:22.16px;"/>
    </g>
</svg>
