<svg width="38" height="44" viewBox="0 0 38 44" fill="none" xmlns="http://www.w3.org/2000/svg">
<path d="M14.8501 11.9334C23.0694 7.23634 24.9593 6.24291 32.0837 6.77474C32.4357 6.80297 32.7861 6.84943 33.1333 6.91392L32.0882 2.99513C24.4268 2.35668 22.673 3.26774 14.2116 8.10271C5.27334 13.2103 0.804199 10.0181 0.804199 10.0181L1.88318 14.0945C3.20732 14.7324 7.52834 16.1172 14.8501 11.9334Z" fill="#F53E28" stroke="#4C241D" stroke-width="1.2769" stroke-linecap="round" stroke-linejoin="round"/>
<path d="M35.9189 17.6794C35.9189 17.6794 29.5344 15.764 21.873 21.5101C15.0282 26.6438 6.33641 27.205 5.36597 27.2523L6.55029 31.7252C6.55029 31.7252 15.8908 31.4239 23.1499 25.9792C30.8113 20.2332 37.1958 22.1485 37.1958 22.1485L35.9949 17.6455L35.9189 17.6794Z" fill="#F53E28" stroke="#4C241D" stroke-width="1.2769" stroke-linecap="round" stroke-linejoin="round"/>
<path d="M35.919 17.6795L35.995 17.6456L33.1334 6.91396C32.7862 6.84947 32.4359 6.80301 32.0838 6.77478C24.9594 6.24295 23.0696 7.23638 14.8502 11.9334C7.52846 16.1172 3.20744 14.7324 1.8833 14.0946L5.36604 27.2524C6.33648 27.2051 15.0283 26.6439 21.8731 21.5102C29.5345 15.7641 35.919 17.6795 35.919 17.6795Z" fill="#FFCE56" stroke="#4C241D" stroke-width="1.2769" stroke-linecap="round" stroke-linejoin="round"/>
<path d="M35.919 17.6795L35.995 17.6456L33.1334 6.91396C32.7862 6.84947 32.4359 6.80301 32.0838 6.77478C24.9594 6.24295 23.0696 7.23638 14.8502 11.9334C7.52846 16.1172 3.20744 14.7324 1.8833 14.0946L5.36604 27.2524C6.33648 27.2051 15.0283 26.6439 21.8731 21.5102C29.5345 15.7641 35.919 17.6795 35.919 17.6795Z" fill="#FFCE56" stroke="#4C241D" stroke-width="1.2769" stroke-linecap="round" stroke-linejoin="round"/>
<path d="M1.8833 14.0945L8.57871 39.3234" stroke="#4C241D" stroke-width="1.2769" stroke-linecap="round" stroke-linejoin="round"/>
<path d="M35.1711 42.1562H5.63187V34.9779C5.59595 33.4509 5.99446 31.944 6.78324 30.6244C7.57202 29.3047 8.72025 28.2237 10.1006 27.5013L20.0023 22.957L30.7024 27.5013C32.0828 28.2237 33.231 29.3047 34.0198 30.6244C34.8085 31.944 35.2071 33.4509 35.1711 34.9779V42.1562Z" fill="#A9BA5A" stroke="#4C241D" stroke-width="1.4294" stroke-linecap="round" stroke-linejoin="round"/>
<path d="M17.7504 32.5567H11.6911L10.1763 26.6492L16.2356 24.434L17.7504 32.5567Z" fill="#CCCCCC" stroke="#4C241D" stroke-width="1.4294" stroke-linecap="round" stroke-linejoin="round"/>
<path d="M23.0525 32.5567H29.1118L30.6267 26.6492L24.5673 24.434L23.0525 32.5567Z" fill="#CCCCCC" stroke="#4C241D" stroke-width="1.4294" stroke-linecap="round" stroke-linejoin="round"/>
<path d="M16.9932 23.6956H23.8099V25.9108C23.8099 26.6942 23.4907 27.4455 22.9225 27.9994C22.3544 28.5534 21.5838 28.8646 20.7802 28.8646H20.0228C19.2193 28.8646 18.4487 28.5534 17.8805 27.9994C17.3124 27.4455 16.9932 26.6942 16.9932 25.9108V23.6956Z" fill="#FFE8DC" stroke="#4C241D" stroke-width="1.4294" stroke-linecap="round" stroke-linejoin="round"/>
<path d="M10.9339 14.4652C10.6793 14.465 10.4273 14.5149 10.193 14.6118C9.9586 14.7088 9.74672 14.8508 9.56995 15.0294C9.39319 15.208 9.25518 15.4195 9.16418 15.6513C9.07318 15.8831 9.03105 16.1304 9.04032 16.3784C9.06307 16.6722 9.15593 16.9567 9.31151 17.2093C9.46708 17.4619 9.68105 17.6755 9.93634 17.8331C10.1623 17.9972 10.4268 18.1035 10.7057 18.1422C10.9846 18.1809 11.2691 18.1508 11.533 18.0547C11.9069 19.8378 12.7604 21.4919 14.0061 22.8475C15.2517 24.203 16.8447 25.2114 18.6216 25.769C19.6804 26.0899 20.8158 26.078 21.8672 25.7351L22.2035 25.6287C23.9542 25.0749 25.5255 24.0833 26.7605 22.7528C27.9955 21.4223 28.8512 19.7993 29.2421 18.0458C29.5014 18.1428 29.7809 18.1775 30.0568 18.1469C30.3328 18.1163 30.5971 18.0214 30.8274 17.8701C31.0715 17.7293 31.2806 17.5375 31.4398 17.3086C31.5989 17.0797 31.704 16.8193 31.7477 16.5461C31.7819 16.2859 31.7589 16.0216 31.6801 15.7709C31.6014 15.5201 31.4687 15.2885 31.291 15.0916C31.1133 14.8947 30.8945 14.737 30.6494 14.629C30.4042 14.521 30.1383 14.4651 29.8693 14.4652V11.4221L14.5589 9.78796L10.9339 11.1422V14.4652Z" fill="#FFE8DC" stroke="#4C241D" stroke-width="1.4294" stroke-linecap="round" stroke-linejoin="round"/>
<path d="M24.1886 18.1573C24.6069 18.1573 24.946 17.8267 24.946 17.4188C24.946 17.011 24.6069 16.6804 24.1886 16.6804C23.7703 16.6804 23.4312 17.011 23.4312 17.4188C23.4312 17.8267 23.7703 18.1573 24.1886 18.1573Z" fill="#4C241D"/>
<path d="M16.6144 18.1573C17.0327 18.1573 17.3718 17.8267 17.3718 17.4188C17.3718 17.011 17.0327 16.6804 16.6144 16.6804C16.196 16.6804 15.8569 17.011 15.8569 17.4188C15.8569 17.8267 16.196 18.1573 16.6144 18.1573Z" fill="#4C241D"/>
<path d="M10.9338 42.1563V38.4641" stroke="#4C241D" stroke-width="1.4294" stroke-linecap="round" stroke-linejoin="round"/>
<path d="M29.1118 42.1563V38.4641" stroke="#4C241D" stroke-width="1.4294" stroke-linecap="round" stroke-linejoin="round"/>
<path d="M12.07 9.66541H28.7331C29.0345 9.66541 29.3234 9.7821 29.5365 9.98983C29.7496 10.1976 29.8693 10.4793 29.8693 10.773V11.8807H12.07C11.7686 11.8807 11.4797 11.764 11.2666 11.5563C11.0535 11.3485 10.9338 11.0668 10.9338 10.773C10.9338 10.4793 11.0535 10.1976 11.2666 9.98983C11.4797 9.7821 11.7686 9.66541 12.07 9.66541Z" fill="#FFCE56" stroke="#4C241D" stroke-width="1.4294" stroke-linecap="round" stroke-linejoin="round"/>
<path d="M31.8681 5.87056L27.9924 1.98938C26.7447 1.21532 25.2964 0.804185 23.8175 0.804199H11.6155C10.8321 0.804199 10.0808 1.10761 9.52681 1.64769C8.97284 2.18778 8.66162 2.92028 8.66162 3.68407V6.78547C8.66162 7.54926 8.97284 8.28177 9.52681 8.82185C10.0808 9.36193 10.8321 9.66534 11.6155 9.66534H26.0822V9.16912L28.6961 10.8675C29.05 11.098 29.45 11.2529 29.8697 11.3219C30.2894 11.3909 30.7194 11.3724 31.1313 11.2678C31.5432 11.1632 31.9277 10.9747 32.2595 10.7148C32.5913 10.4549 32.863 10.1295 33.0565 9.75986C33.3856 9.08287 33.4463 8.31115 33.2269 7.59316C33.0075 6.87517 32.5236 6.26163 31.8681 5.87056Z" fill="#A9BA5A" stroke="#4C241D" stroke-width="1.4294" stroke-linecap="round" stroke-linejoin="round"/>
<path d="M26.082 6.71167V8.92696" stroke="#4C241D" stroke-width="1.4294" stroke-linecap="round" stroke-linejoin="round"/>
</svg>
