<?xml version="1.0" encoding="UTF-8" standalone="no"?>
<!DOCTYPE svg PUBLIC "-//W3C//DTD SVG 1.1//EN" "http://www.w3.org/Graphics/SVG/1.1/DTD/svg11.dtd">
<svg width="100%" height="100%" viewBox="0 0 2416 410" version="1.1" xmlns="http://www.w3.org/2000/svg" xmlns:xlink="http://www.w3.org/1999/xlink" xml:space="preserve" xmlns:serif="http://www.serif.com/" style="fill-rule:evenodd;clip-rule:evenodd;stroke-linecap:round;stroke-linejoin:round;">
    <g transform="matrix(1,0,0,1,0,-165)">
        <path d="M2179.28,501.359C2179.28,501.359 1849.76,409.051 1283.4,489.86C777.395,562.059 261.451,511.855 204.173,505.882L177.803,621.068C177.803,621.068 725.84,682.205 1262.48,605.631C1828.84,524.822 2158.36,617.131 2158.36,617.131L2184.41,501.109L2179.28,501.359Z" style="fill:rgb(245,62,40);fill-rule:nonzero;stroke:rgb(76,36,29);stroke-width:22.16px;"/>
    </g>
    <g transform="matrix(1,0,0,1,0,-165)">
        <path d="M2177.07,511.915L2182.19,511.665L2244.3,235.162C2225.53,231.086 2206.2,227.417 2186.39,224.17C1784.56,159.399 1653.86,169.236 1077.43,220.982C563.962,267.069 342.822,202.488 279.591,177.614L201.956,516.438C259.234,522.41 775.178,572.615 1281.18,500.415C1847.54,419.607 2177.07,511.915 2177.07,511.915Z" style="fill:rgb(255,206,86);fill-rule:nonzero;stroke:rgb(76,36,29);stroke-width:22.16px;"/>
    </g>
    <g transform="matrix(1,0,0,1,0,-165)">
        <path d="M1054.13,324.886C1630.56,273.14 1761.25,263.303 2163.08,328.075C2182.9,331.322 2202.23,334.99 2220.99,339.066L2243.66,238.096C1812.96,166.858 1691.9,175.728 1098.5,228.989C471.662,285.254 280.339,176.545 280.339,176.545L256.285,281.518C319.516,306.392 540.656,370.973 1054.13,324.886Z" style="fill:rgb(245,62,40);fill-rule:nonzero;stroke:rgb(76,36,29);stroke-width:22.16px;"/>
    </g>
</svg>
