<svg width="1634" height="589" viewBox="0 0 1634 589" fill="none" xmlns="http://www.w3.org/2000/svg">
<path d="M1853.28 516.359C1853.28 516.359 1523.76 424.051 957.398 504.86C451.395 577.059 -64.5492 526.855 -121.827 520.882L-148.197 636.068C-148.197 636.068 399.84 697.205 936.477 620.631C1502.84 539.822 1832.36 632.131 1832.36 632.131L1858.41 516.109L1853.28 516.359Z" fill="#F53E28" stroke="#4C241D" stroke-width="22.1586" stroke-linecap="round" stroke-linejoin="round"/>
<path d="M1851.07 526.915L1856.19 526.665L1918.3 250.162C1899.53 246.086 1880.2 242.417 1860.39 239.17C1458.56 174.399 1327.86 184.236 751.433 235.982C237.962 282.069 16.8219 217.488 -46.4092 192.614L-124.044 531.438C-66.7664 537.41 449.178 587.615 955.181 515.415C1521.54 434.607 1851.07 526.915 1851.07 526.915Z" fill="#FFCE56" stroke="#4C241D" stroke-width="22.1586" stroke-linecap="round" stroke-linejoin="round"/>
<path d="M747.128 319.886C1323.56 268.14 1454.25 258.303 1856.08 323.075C1875.9 326.322 1895.23 329.99 1913.99 334.066L1936.66 233.096C1505.96 161.858 1384.9 170.728 791.504 223.989C164.662 280.254 -26.6608 171.545 -26.6608 171.545L-50.7151 276.518C12.516 301.392 233.656 365.973 747.128 319.886Z" fill="#F53E28" stroke="#4C241D" stroke-width="22.1586" stroke-linecap="round" stroke-linejoin="round"/>
</svg>
